<?xml version="1.0" standalone="no"?>
<!DOCTYPE svg PUBLIC "-//W3C//DTD SVG 20010904//EN"
 "http://www.w3.org/TR/2001/REC-SVG-20010904/DTD/svg10.dtd">
<svg version="1.0" xmlns="http://www.w3.org/2000/svg"
 width="2048.000000pt" height="2048.000000pt" viewBox="0 0 2048.000000 2048.000000"
 preserveAspectRatio="xMidYMid meet">

<g transform="translate(0.000000,2048.000000) scale(0.100000,-0.100000)"
fill="#cfe8ef" stroke="none">
<path d="M6215 17460 c-1149 -4 -1609 -8 -1631 -16 -37 -14 -305 -58 -465 -77
-96 -12 -130 -21 -205 -54 -49 -23 -138 -55 -199 -73 -60 -17 -130 -45 -155
-60 -25 -16 -83 -43 -129 -61 -46 -17 -97 -44 -115 -59 -17 -14 -67 -46 -111
-69 -44 -23 -96 -57 -115 -76 -19 -18 -51 -41 -70 -50 -37 -19 -80 -58 -235
-214 -131 -132 -201 -209 -224 -246 -10 -16 -35 -46 -56 -65 -20 -19 -50 -60
-65 -91 -16 -30 -45 -77 -65 -103 -19 -26 -54 -84 -75 -129 -22 -45 -52 -102
-66 -125 -15 -24 -40 -90 -56 -145 -16 -56 -42 -124 -58 -152 -18 -31 -43
-108 -65 -200 -20 -82 -52 -196 -70 -251 -26 -77 -41 -155 -64 -325 -65 -484
-80 -739 -91 -1484 -7 -530 -9 -588 -28 -676 -23 -108 -34 -136 -74 -196 -16
-23 -37 -63 -48 -89 -35 -80 -223 -280 -320 -339 -25 -15 -63 -44 -85 -65 -22
-20 -60 -48 -85 -63 -25 -14 -72 -49 -105 -77 -33 -28 -74 -61 -92 -73 -17
-11 -58 -63 -90 -115 -32 -51 -67 -107 -77 -124 -11 -17 -30 -74 -44 -127 -22
-88 -25 -125 -34 -451 -10 -426 -10 -483 3 -625 13 -142 49 -264 93 -313 18
-20 42 -53 54 -72 11 -19 62 -71 112 -115 51 -44 115 -101 144 -126 28 -26 66
-54 85 -64 18 -9 52 -34 75 -54 22 -21 73 -55 111 -76 117 -64 325 -263 349
-334 4 -14 12 -255 16 -536 19 -1149 44 -1641 100 -1971 11 -67 25 -213 30
-334 13 -275 22 -341 70 -503 22 -73 50 -178 64 -235 14 -56 36 -122 50 -145
14 -23 44 -78 67 -122 23 -44 63 -103 90 -132 27 -28 49 -57 49 -63 0 -13 128
-157 211 -238 33 -33 49 -48 147 -141 26 -24 70 -58 97 -76 28 -18 61 -45 74
-59 14 -14 50 -40 80 -57 31 -17 79 -49 107 -70 28 -21 86 -52 130 -68 43 -15
109 -44 146 -64 39 -21 106 -44 165 -57 54 -12 161 -38 238 -56 152 -37 324
-59 541 -69 77 -3 252 -15 389 -27 224 -18 299 -20 720 -14 259 4 801 11 1205
16 740 10 1032 20 1127 39 69 14 289 127 316 163 12 16 42 52 66 80 64 75 98
165 137 361 17 90 11 141 -34 266 -28 75 -35 85 -143 185 -66 61 -100 76 -389
172 -66 22 -432 74 -530 75 -141 1 -688 -20 -795 -31 -93 -10 -1365 -34 -1800
-34 -262 -1 -460 27 -525 74 -16 11 -76 40 -134 64 -57 24 -119 55 -136 70
-18 14 -57 38 -87 53 -61 28 -183 138 -239 214 -22 31 -54 101 -85 191 -28 79
-60 168 -70 198 -27 74 -36 207 -49 720 -28 1092 -39 1384 -60 1620 -6 58 -10
173 -10 255 0 106 -7 206 -25 340 -35 259 -50 323 -87 381 -17 27 -43 80 -59
117 -15 38 -39 85 -54 105 -46 66 -70 100 -97 144 -15 24 -42 62 -60 85 -18
23 -45 59 -60 80 -87 121 -220 282 -313 378 -33 34 -73 76 -89 94 -16 17 -32
31 -36 31 -4 0 -44 41 -90 92 l-82 91 6 61 c3 33 12 69 20 80 20 29 264 278
291 296 12 8 100 87 194 175 174 162 337 337 387 417 15 23 40 59 55 78 16 20
41 79 60 140 17 58 45 138 61 178 38 99 46 164 58 532 6 173 15 389 21 480 5
91 14 271 19 400 22 590 64 1099 106 1300 9 41 29 100 44 130 15 31 40 96 55
145 29 96 55 152 90 200 13 17 34 53 49 82 14 28 41 63 60 78 18 14 46 44 60
65 14 22 44 51 65 65 22 13 57 42 78 63 21 21 91 66 156 101 113 60 128 65
320 106 111 24 234 55 273 69 46 16 110 29 185 35 63 6 191 17 284 26 364 33
788 54 1185 60 753 11 1814 3 1922 -15 37 -5 181 -24 319 -40 138 -16 278 -37
311 -46 66 -19 81 -35 108 -114 16 -46 15 -55 -8 -181 -19 -106 -30 -142 -53
-175 -16 -23 -42 -80 -59 -127 -17 -46 -46 -108 -65 -137 -19 -30 -47 -90 -61
-134 -15 -45 -46 -118 -70 -162 -24 -45 -53 -108 -64 -140 -11 -33 -36 -82
-55 -109 -19 -28 -48 -89 -65 -135 -17 -46 -48 -111 -69 -145 -22 -33 -51 -93
-65 -133 -14 -41 -40 -94 -57 -119 -17 -25 -48 -85 -69 -133 -21 -49 -49 -104
-64 -122 -14 -19 -41 -76 -60 -127 -19 -50 -52 -122 -74 -159 -22 -37 -47 -90
-57 -119 -9 -29 -36 -82 -60 -119 -25 -37 -54 -96 -65 -130 -12 -35 -39 -89
-61 -121 -21 -32 -51 -89 -65 -127 -15 -37 -44 -98 -65 -134 -21 -37 -52 -107
-69 -157 -17 -49 -43 -109 -59 -133 -16 -23 -43 -83 -60 -133 -16 -49 -45
-111 -64 -137 -20 -27 -48 -89 -67 -147 -18 -55 -43 -118 -55 -141 -40 -69
-60 -198 -59 -384 0 -147 2 -171 22 -218 12 -30 33 -68 46 -85 13 -18 35 -55
50 -84 14 -28 40 -61 58 -74 18 -12 53 -41 78 -64 47 -44 111 -71 235 -96 121
-25 311 5 404 65 136 87 193 130 228 174 20 26 51 61 68 77 18 17 49 62 70
100 21 39 51 86 66 105 15 19 45 76 66 125 21 50 53 109 70 133 18 24 44 79
58 122 14 43 39 98 55 122 16 23 45 87 64 141 20 54 49 117 66 140 16 23 45
87 64 142 18 55 50 126 69 159 20 32 48 91 63 130 15 39 40 89 56 112 16 22
44 82 63 132 19 51 48 113 66 138 17 26 47 89 65 142 19 52 47 116 63 141 16
25 42 80 56 121 15 41 46 111 70 155 23 44 50 105 60 135 20 63 45 114 79 165
14 20 36 71 51 114 14 42 41 102 60 131 19 30 42 75 51 100 21 57 67 154 99
205 14 22 32 63 41 90 9 28 38 91 65 142 27 50 58 116 68 146 10 31 36 86 59
124 23 37 55 108 72 157 18 49 43 107 56 128 14 22 40 86 59 142 18 57 49 127
68 157 23 35 47 93 67 164 17 61 47 142 67 182 29 60 38 98 60 240 43 290 21
543 -57 648 -16 22 -43 63 -59 90 -37 63 -141 165 -205 200 -27 14 -63 37 -81
50 -44 34 -104 54 -220 71 -55 8 -143 29 -195 46 -159 51 -27 49 -3535 38z"/>
<path d="M14790 17449 c-63 -4 -171 -19 -240 -33 -69 -13 -177 -32 -240 -41
-196 -27 -221 -34 -349 -98 -103 -51 -140 -76 -213 -144 -49 -45 -108 -108
-130 -140 -23 -32 -57 -75 -75 -96 -18 -21 -47 -65 -63 -99 -17 -34 -41 -74
-54 -88 -13 -14 -43 -62 -65 -108 -23 -46 -57 -104 -75 -130 -18 -26 -43 -77
-56 -115 -12 -37 -38 -91 -58 -120 -20 -28 -51 -92 -69 -140 -18 -49 -48 -110
-67 -135 -18 -26 -46 -81 -60 -122 -15 -41 -42 -100 -60 -130 -19 -30 -48 -97
-64 -148 -17 -52 -42 -108 -55 -125 -33 -44 -56 -90 -82 -168 -13 -37 -39 -92
-58 -122 -19 -30 -47 -88 -62 -128 -14 -40 -41 -98 -59 -129 -37 -62 -46 -85
-75 -186 -12 -38 -35 -92 -52 -118 -18 -26 -49 -93 -69 -149 -20 -56 -49 -119
-63 -141 -15 -21 -36 -71 -48 -110 -11 -39 -27 -91 -36 -116 -8 -25 -26 -76
-40 -115 -27 -78 -27 -155 2 -276 31 -134 69 -206 153 -289 42 -43 95 -87 117
-98 22 -11 57 -33 78 -50 109 -87 474 -86 566 2 14 14 67 43 116 66 50 23 101
51 114 63 12 12 41 58 63 102 22 44 49 89 59 101 11 12 39 66 63 121 24 55 55
117 70 139 14 22 39 79 55 126 16 48 44 108 62 134 18 26 47 86 66 133 18 47
47 106 64 129 18 24 46 79 64 123 18 43 46 96 63 116 16 21 44 72 62 113 18
41 49 98 69 125 21 28 49 82 64 120 15 39 42 92 62 119 20 29 46 88 64 146 17
53 39 108 49 121 29 37 58 99 77 162 9 31 33 81 52 110 20 28 51 90 70 136 18
47 40 92 49 102 9 10 44 59 78 110 55 84 68 96 127 126 61 33 71 35 170 36
108 1 446 -26 558 -44 36 -5 99 -24 142 -40 42 -16 114 -36 160 -44 172 -28
309 -64 342 -89 18 -13 57 -36 87 -51 84 -42 277 -214 333 -295 17 -25 45 -61
62 -81 18 -20 42 -63 54 -95 12 -33 42 -99 66 -149 33 -66 52 -127 75 -230 17
-77 39 -167 50 -200 40 -124 55 -300 65 -755 9 -377 22 -715 39 -970 44 -645
48 -686 82 -858 20 -98 33 -140 59 -182 18 -30 51 -93 72 -140 25 -55 50 -92
67 -103 15 -10 39 -37 54 -61 15 -23 95 -107 177 -188 83 -80 173 -169 202
-197 29 -29 68 -63 87 -76 19 -13 96 -85 170 -160 140 -140 146 -149 162 -251
9 -59 -19 -98 -217 -302 -92 -94 -180 -189 -196 -210 -15 -20 -49 -60 -75 -89
-26 -28 -48 -57 -48 -63 0 -6 -24 -37 -54 -68 -29 -31 -61 -73 -71 -92 -10
-19 -37 -60 -61 -90 -23 -30 -58 -87 -78 -126 -19 -38 -42 -76 -51 -84 -34
-28 -60 -100 -146 -396 -33 -117 -48 -305 -54 -699 -9 -621 -34 -1597 -45
-1744 -5 -75 -14 -209 -20 -299 -6 -109 -20 -214 -41 -315 -33 -165 -45 -200
-83 -249 -13 -18 -35 -64 -48 -101 -21 -61 -31 -75 -110 -147 -49 -45 -116
-95 -155 -115 -37 -20 -77 -44 -88 -54 -26 -24 -66 -44 -151 -76 -38 -14 -89
-39 -114 -55 -58 -37 -93 -45 -279 -65 -114 -13 -198 -16 -320 -11 -91 3 -490
10 -886 15 -466 6 -783 15 -900 25 -158 13 -671 31 -780 27 -58 -2 -378 -49
-453 -66 -35 -9 -94 -28 -131 -44 -36 -16 -88 -35 -116 -42 -79 -19 -148 -64
-228 -149 -103 -109 -120 -148 -125 -285 -5 -146 17 -268 62 -345 19 -30 45
-75 59 -100 43 -78 131 -151 247 -208 58 -28 124 -55 147 -61 76 -20 402 -32
1123 -41 393 -5 927 -12 1187 -16 426 -6 498 -5 755 14 155 12 362 27 458 33
223 14 318 25 405 49 39 10 134 33 212 50 160 35 241 60 281 88 15 11 67 34
115 52 49 18 109 50 135 70 26 21 66 47 89 59 23 11 57 36 75 54 18 18 65 54
103 79 77 51 331 296 410 396 54 68 99 132 127 178 10 16 33 48 52 71 23 28
46 79 71 152 20 61 41 113 46 116 15 10 50 136 60 220 5 44 21 141 34 215 13
74 29 200 35 280 6 79 19 205 30 280 10 74 26 281 35 460 8 179 18 350 21 380
2 30 9 165 14 300 5 135 17 310 25 390 10 93 19 305 24 591 l7 446 27 55 c39
79 213 240 315 292 29 15 70 43 92 62 21 19 63 52 93 72 79 53 176 135 277
232 74 71 95 99 126 165 21 44 48 96 60 115 39 60 45 145 45 625 -1 480 -7
551 -48 623 -13 23 -39 83 -58 133 -33 89 -59 128 -156 227 -46 47 -137 121
-215 175 -104 71 -244 178 -244 187 0 4 -25 27 -56 51 -31 23 -72 68 -91 98
-20 31 -50 74 -68 96 -40 49 -70 108 -80 155 -4 19 -25 80 -48 135 l-41 100
-7 545 c-7 523 -22 1081 -34 1240 -9 122 -25 218 -55 340 -16 63 -41 187 -55
275 -21 130 -33 174 -62 235 -19 41 -48 125 -63 187 -17 69 -41 137 -64 178
-20 36 -46 96 -57 133 -25 77 -52 134 -84 177 -13 17 -36 57 -53 90 -16 33
-40 69 -52 80 -13 11 -42 50 -66 86 -23 37 -47 70 -53 74 -6 3 -44 48 -85 98
-105 131 -310 328 -397 383 -24 15 -61 42 -81 60 -20 18 -65 47 -100 64 -35
17 -74 42 -88 55 -30 27 -71 49 -157 81 -35 13 -81 35 -103 49 -22 14 -77 37
-123 51 -45 14 -131 45 -192 69 -143 56 -202 72 -300 79 -44 3 -145 18 -225
32 -305 53 -313 54 -600 52 -151 0 -327 -4 -390 -9z"/>
<path d="M11860 12809 c-19 -6 -52 -15 -72 -20 -53 -14 -183 -130 -214 -191
-14 -27 -39 -68 -57 -91 -18 -23 -45 -76 -61 -117 -16 -41 -44 -96 -62 -121
-18 -25 -49 -85 -69 -134 -19 -49 -47 -104 -61 -123 -15 -18 -42 -73 -61 -120
-19 -48 -50 -107 -68 -132 -18 -25 -44 -81 -58 -124 -15 -44 -45 -109 -67
-146 -22 -36 -51 -99 -65 -140 -14 -41 -43 -104 -65 -140 -21 -36 -50 -95 -63
-132 -13 -36 -40 -90 -59 -120 -20 -29 -49 -92 -65 -140 -16 -47 -48 -117 -71
-154 -23 -38 -50 -99 -61 -135 -12 -36 -38 -92 -59 -125 -22 -33 -52 -98 -67
-145 -15 -46 -41 -102 -57 -125 -16 -23 -47 -85 -69 -140 -22 -54 -51 -115
-65 -136 -15 -21 -40 -77 -56 -125 -16 -49 -47 -115 -68 -148 -21 -33 -51 -96
-66 -140 -15 -44 -43 -105 -62 -135 -19 -30 -45 -84 -59 -120 -13 -36 -42 -94
-63 -130 -22 -36 -53 -105 -70 -155 -18 -49 -47 -112 -66 -140 -18 -27 -45
-84 -59 -125 -14 -41 -43 -104 -64 -140 -22 -36 -52 -101 -67 -145 -14 -44
-39 -98 -55 -120 -16 -22 -45 -78 -65 -125 -20 -47 -51 -103 -69 -125 -17 -22
-41 -61 -52 -86 -12 -26 -36 -64 -55 -85 -19 -22 -57 -68 -85 -104 -67 -85
-215 -215 -294 -258 -35 -19 -77 -45 -92 -58 -64 -54 -247 -89 -462 -89 -239
1 -430 36 -525 98 -19 13 -73 38 -119 57 -47 19 -103 50 -128 72 -25 21 -59
45 -76 54 -30 15 -74 54 -172 153 -95 96 -136 151 -165 220 -16 40 -43 97 -60
126 -46 81 -63 181 -63 385 -1 205 18 337 59 414 14 28 44 104 65 169 24 74
50 134 69 157 17 21 42 64 56 96 14 32 38 76 54 98 23 32 45 98 95 288 l66
248 -14 72 c-16 81 -57 223 -81 280 -9 20 -37 53 -63 74 -27 21 -61 50 -78 65
-17 16 -61 37 -103 49 -66 20 -90 22 -245 18 -188 -4 -170 1 -322 -84 -94 -52
-257 -218 -330 -334 -15 -25 -42 -61 -59 -80 -18 -20 -44 -70 -60 -115 -16
-44 -44 -102 -63 -128 -22 -30 -46 -83 -63 -141 -15 -51 -44 -124 -63 -162
-19 -38 -49 -118 -66 -177 -17 -59 -42 -134 -56 -167 -18 -43 -32 -113 -51
-262 -26 -198 -26 -208 -15 -448 11 -257 23 -334 66 -431 14 -31 34 -93 45
-138 25 -99 34 -121 81 -191 20 -30 47 -84 59 -118 13 -35 46 -94 73 -130 27
-37 57 -83 68 -103 10 -20 33 -49 51 -64 18 -15 42 -42 53 -60 27 -44 176
-196 264 -270 40 -33 98 -83 129 -111 31 -28 80 -64 107 -79 28 -16 73 -45
100 -66 28 -21 81 -51 119 -68 37 -17 82 -43 99 -57 36 -31 94 -61 163 -84 28
-10 70 -30 93 -45 24 -14 95 -43 159 -64 64 -21 142 -51 172 -66 68 -35 128
-49 300 -70 74 -9 164 -23 200 -31 127 -29 194 -32 397 -19 139 10 253 24 384
49 195 37 251 53 309 88 19 11 67 33 106 48 39 15 92 42 117 59 26 17 77 45
114 62 37 16 88 50 115 74 26 25 51 45 57 45 5 0 38 26 73 58 36 31 90 75 122
97 31 22 85 76 121 120 35 45 73 90 85 100 12 11 36 40 53 65 17 25 45 58 64
73 18 16 43 48 54 70 12 23 37 61 55 84 19 23 52 79 73 125 21 46 50 98 65
116 16 18 43 68 61 111 19 44 49 102 69 130 19 28 46 87 61 130 14 44 38 97
52 118 28 40 59 107 88 186 9 26 31 69 49 95 18 26 45 84 60 129 15 45 38 98
52 118 35 51 59 102 79 165 9 30 35 85 56 121 22 37 53 101 69 144 17 42 44
97 61 121 17 25 45 86 63 137 19 51 50 118 69 151 20 32 44 82 53 110 21 64
50 121 81 163 13 17 38 66 54 109 16 43 45 98 63 123 19 26 46 77 62 115 15
37 42 91 61 118 19 28 51 93 70 144 19 52 50 119 68 150 19 31 39 82 45 113
17 89 40 152 69 195 16 23 43 82 61 131 18 50 49 117 70 150 21 33 48 92 61
130 23 75 51 134 80 175 10 14 34 66 52 115 18 50 49 114 69 142 20 29 44 76
54 105 20 64 49 123 80 163 12 17 34 68 49 115 15 47 42 112 59 145 34 62 50
130 61 250 8 86 -20 188 -61 226 -15 13 -42 47 -60 76 -23 36 -49 60 -86 80
-29 16 -75 44 -103 61 -82 52 -217 83 -375 88 -76 2 -150 -1 -170 -7z"/>
</g>
</svg>
