<?xml version="1.0" standalone="no"?>
<!DOCTYPE svg PUBLIC "-//W3C//DTD SVG 20010904//EN"
 "http://www.w3.org/TR/2001/REC-SVG-20010904/DTD/svg10.dtd">
<svg version="1.0" xmlns="http://www.w3.org/2000/svg"
 width="700.000000pt" height="700.000000pt" viewBox="0 0 700.000000 700.000000"
 preserveAspectRatio="xMidYMid meet">
<metadata>
Created by potrace 1.14, written by Peter Selinger 2001-2017
</metadata>
<g transform="translate(0.000000,700.000000) scale(0.100000,-0.100000)"
fill="#000000" stroke="none">
<path d="M1556 5963 c-3 -4 -85 -19 -146 -28 -45 -6 -196 -60 -215 -77 -5 -4
-15 -8 -22 -8 -25 0 -153 -91 -213 -152 -64 -64 -133 -151 -166 -208 -42 -74
-118 -292 -130 -375 -26 -179 -32 -275 -39 -567 -4 -215 -10 -251 -53 -318
-36 -57 -72 -92 -166 -160 -102 -75 -135 -131 -145 -240 -12 -142 -6 -340 13
-382 20 -48 91 -117 187 -185 42 -29 93 -71 113 -93 l36 -40 0 -98 c2 -241 15
-609 26 -684 11 -84 14 -107 19 -193 9 -137 49 -277 101 -355 111 -168 291
-301 464 -343 61 -14 85 -19 200 -34 61 -8 935 -10 1085 -2 184 9 256 51 289
168 17 63 16 89 -6 142 -28 64 -106 105 -244 128 -91 16 -108 16 -359 6 -115
-5 -338 -9 -495 -9 l-285 -1 -85 43 c-127 64 -159 96 -195 200 -28 79 -31 121
-40 467 -3 121 -8 256 -10 300 -3 44 -7 125 -10 180 -8 148 -20 207 -59 277
-47 86 -140 208 -225 297 -47 48 -71 81 -71 97 0 23 31 57 184 204 100 95 142
151 165 223 29 85 29 84 35 248 4 79 9 182 11 229 3 47 7 130 10 185 13 244
20 288 62 395 33 83 47 106 103 160 60 59 113 84 240 114 184 42 330 51 860
51 234 0 448 -4 475 -8 28 -4 66 -9 85 -12 75 -10 91 -17 101 -43 14 -36 -2
-102 -45 -189 -20 -40 -36 -75 -36 -78 0 -7 -92 -198 -254 -527 -80 -164 -146
-300 -146 -302 0 -3 -15 -38 -34 -78 -71 -151 -78 -171 -81 -254 -4 -77 -2
-84 28 -135 44 -73 99 -102 183 -97 77 5 143 42 196 113 34 44 106 181 166
315 33 74 77 168 135 291 31 64 67 143 81 175 13 33 49 111 79 174 106 223
159 336 184 395 14 33 34 80 45 105 57 124 71 182 72 290 1 97 -1 108 -26 145
-54 83 -105 115 -228 145 -82 19 -115 20 -943 18 -472 -1 -859 -3 -861 -5z"/>
<path d="M5015 5959 c-22 -4 -58 -9 -80 -12 -80 -11 -141 -29 -182 -52 -41
-25 -143 -130 -143 -149 0 -5 -6 -17 -14 -25 -17 -19 -131 -241 -185 -360 -21
-47 -60 -131 -86 -186 -26 -55 -54 -118 -61 -139 -8 -22 -18 -44 -23 -50 -20
-27 -85 -206 -89 -247 -17 -173 168 -287 331 -204 62 32 97 78 147 190 25 58
119 245 130 260 12 16 95 183 130 260 80 177 118 237 161 255 39 17 199 6 297
-20 42 -12 93 -23 112 -26 79 -13 196 -118 244 -219 23 -49 31 -76 51 -158 2
-10 7 -26 9 -35 8 -24 14 -129 21 -342 4 -102 8 -201 9 -220 2 -19 7 -82 11
-140 7 -104 9 -116 21 -175 15 -73 66 -141 210 -280 170 -166 170 -166 92
-252 -28 -32 -59 -65 -68 -73 -35 -32 -113 -136 -150 -199 -79 -135 -83 -161
-95 -725 -7 -310 -12 -385 -31 -500 -9 -52 -55 -135 -92 -166 -20 -17 -75 -50
-121 -73 l-85 -42 -290 1 c-160 0 -381 4 -491 9 -238 10 -270 9 -355 -6 -141
-24 -240 -82 -257 -147 -11 -46 4 -138 30 -179 50 -79 118 -108 267 -113 359
-12 1037 -4 1180 15 133 17 276 78 385 165 157 125 238 254 265 420 16 106 18
116 25 200 3 41 8 91 10 110 2 19 7 98 10 175 4 77 9 160 11 185 2 25 6 131 9
235 4 105 11 202 17 217 11 29 47 65 105 101 85 55 178 143 207 197 30 55 30
55 30 230 0 158 -2 181 -23 236 -29 80 -45 97 -207 223 -61 47 -105 109 -129
181 -14 42 -18 96 -21 264 -3 235 -11 418 -19 456 -3 14 -12 61 -21 105 -14
75 -41 161 -81 266 -70 178 -263 381 -438 458 -82 37 -178 70 -220 76 -22 4
-69 11 -105 18 -74 12 -305 16 -365 6z"/>
<path d="M4013 4361 c-17 -11 -44 -39 -60 -63 -37 -53 -168 -320 -313 -633
-18 -38 -50 -108 -72 -155 -22 -47 -52 -110 -65 -140 -14 -30 -54 -115 -89
-188 -35 -74 -64 -135 -64 -137 0 -1 -25 -55 -55 -119 -30 -64 -55 -118 -55
-120 0 -16 -91 -150 -129 -190 -83 -86 -147 -116 -258 -117 -93 -2 -143 9
-220 47 -91 45 -175 125 -210 202 -22 49 -25 71 -25 152 0 104 10 140 81 280
93 183 89 310 -13 390 -30 24 -153 23 -203 -1 -52 -25 -131 -112 -171 -188
-42 -78 -102 -235 -117 -306 -18 -82 -12 -294 10 -360 28 -83 86 -192 137
-255 166 -204 478 -358 743 -365 118 -3 301 40 367 86 14 11 30 19 34 19 10 0
145 104 164 127 8 10 34 41 57 68 34 41 163 255 163 271 0 2 25 57 56 122 31
64 88 185 126 267 82 175 83 177 175 360 40 77 75 154 79 170 7 31 32 86 150
330 79 165 112 253 108 292 -1 15 -2 33 -3 40 -2 22 -63 84 -105 105 -60 31
-180 36 -223 9z"/>
</g>
</svg>
